<svg height="53" width="53" id="Layer_1" data-name="Layer 1" xmlns="http://www.w3.org/2000/svg" viewBox="0 0 539.03 539.03"><defs><style>.cls-1{fill:#898a89;}.cls-2{fill:#7b5edd;}</style></defs><title>Project Outsourching</title><path class="cls-1" d="M82.58,442.07H262.33a7.19,7.19,0,0,0,7.19-7.19h0a7.19,7.19,0,0,0-7.19-7.19H82.58A21.57,21.57,0,0,1,61,406.12V89.77A21.57,21.57,0,0,1,82.58,68.2H398.93A21.57,21.57,0,0,1,420.5,89.77V247.94a7.19,7.19,0,0,0,7.19,7.19h0a7.19,7.19,0,0,0,7.19-7.19V89.77a36,36,0,0,0-35.95-35.95H82.58A36,36,0,0,0,46.63,89.77V406.12A36,36,0,0,0,82.58,442.07Z"/><path class="cls-1" d="M82.35,82.58h.47a7,7,0,0,1,7,7V90a7,7,0,0,1-7,6.95h-.47A7,7,0,0,1,75.4,90v-.47A7,7,0,0,1,82.35,82.58Z"/><path class="cls-1" d="M111.1,82.58h.48a7,7,0,0,1,7,7V90a7,7,0,0,1-7,6.95h-.48A7,7,0,0,1,104.15,90v-.47A7,7,0,0,1,111.1,82.58Z"/><path class="cls-1" d="M139.86,82.58h.48a7,7,0,0,1,6.95,7V90A7,7,0,0,1,140.34,97h-.48a7,7,0,0,1-7-6.95v-.47A7,7,0,0,1,139.86,82.58Z"/><path class="cls-1" d="M82.59,111.34H398.93a7.19,7.19,0,0,1,7.19,7.19h0a7.19,7.19,0,0,1-7.19,7.19H82.59a7.19,7.19,0,0,1-7.19-7.19h0A7.19,7.19,0,0,1,82.59,111.34Z"/><path class="cls-1" d="M144.31,147.29l-13.17,13.18a36.07,36.07,0,1,0,10.16,10.17l13.18-13.18a7.19,7.19,0,0,0,0-10.17h0A7.19,7.19,0,0,0,144.31,147.29Zm-27.26,64A21.64,21.64,0,0,1,90.6,184.37a20.8,20.8,0,0,1,9-12.09,21.53,21.53,0,0,1,21-1.27l-9.24,9.24a7.21,7.21,0,0,0,0,10.17h0a7.2,7.2,0,0,0,10.17,0l9.25-9.24a21.52,21.52,0,0,1-2,22.05A20.81,20.81,0,0,1,117.05,211.26Z"/><path class="cls-1" d="M176.05,168.86H283.9a7.18,7.18,0,0,1,7.18,7.19h0a7.18,7.18,0,0,1-7.18,7.19H176.05a7.19,7.19,0,0,1-7.19-7.19h0A7.19,7.19,0,0,1,176.05,168.86Z"/><path class="cls-1" d="M176.05,197.62H212a7.19,7.19,0,0,1,7.19,7.19h0A7.19,7.19,0,0,1,212,212H176.05a7.19,7.19,0,0,1-7.19-7.19h0A7.19,7.19,0,0,1,176.05,197.62Z"/><path class="cls-1" d="M144.31,233.57l-13.17,13.18a36.05,36.05,0,1,0,10.16,10.16l13.18-13.18a7.18,7.18,0,0,0,0-10.16h0A7.19,7.19,0,0,0,144.31,233.57Zm-27.19,63.95A21.64,21.64,0,0,1,90.6,270.65a20.85,20.85,0,0,1,9-12.11,21.54,21.54,0,0,1,21-1.25l-9.24,9.24a7.21,7.21,0,0,0,0,10.17h0a7.19,7.19,0,0,0,10.17,0l9.25-9.23a21.49,21.49,0,0,1-2,22A20.73,20.73,0,0,1,117.12,297.52Z"/><path class="cls-1" d="M176.05,255.13H283.89a7.19,7.19,0,0,1,7.19,7.19h0a7.18,7.18,0,0,1-7.19,7.19H176.05a7.18,7.18,0,0,1-7.19-7.18h0A7.19,7.19,0,0,1,176.05,255.13Z"/><path class="cls-1" d="M144.31,319.84,131.14,333a36.07,36.07,0,1,0,10.16,10.17L154.48,330a7.19,7.19,0,0,0,0-10.17h0A7.21,7.21,0,0,0,144.31,319.84ZM116.6,383.93a21.64,21.64,0,0,1-26-27.1,20.85,20.85,0,0,1,9-12,21.53,21.53,0,0,1,21-1.23l-9.24,9.24a7.21,7.21,0,0,0,0,10.17h0a7.2,7.2,0,0,0,10.17,0l9.25-9.24a21.44,21.44,0,0,1-2.22,22.32A20.91,20.91,0,0,1,116.6,383.93Z"/><path class="cls-1" d="M176.05,341.41h79.09a7.19,7.19,0,0,1,7.19,7.19h0a7.19,7.19,0,0,1-7.19,7.19H176.05a7.19,7.19,0,0,1-7.19-7.19h0A7.19,7.19,0,0,1,176.05,341.41Z"/><path class="cls-2" d="M384.55,485.21A107.85,107.85,0,1,0,276.71,377.36,107.85,107.85,0,0,0,384.55,485.21Zm0-201.31a93.47,93.47,0,1,1-93.47,93.46A93.46,93.46,0,0,1,384.55,283.9Z"/><path class="cls-2" d="M334.26,384.55h0a7.19,7.19,0,0,0-3.22,9.64l11.17,22.33a7.19,7.19,0,0,0,5.28,3.89,8.3,8.3,0,0,0,1.11.09,7.2,7.2,0,0,0,5.09-2.11l81.19-81.19a7.19,7.19,0,0,0,0-10.17h0a7.19,7.19,0,0,0-10.16,0l-74.15,74.14-6.67-13.39A7.18,7.18,0,0,0,334.26,384.55Z"/></svg>
