<svg height="53" width="53" id="Layer_1" data-name="Layer 1" xmlns="http://www.w3.org/2000/svg" viewBox="0 0 539.03 539.03"><defs><style>.cls-1{fill:#898a89;}.cls-2{fill:#7b5edd;}</style></defs><title>Process Consulting</title><path class="cls-1" d="M467.93,79.86H73.25a23.61,23.61,0,0,0-23.57,23.61v343.6A14.3,14.3,0,0,0,64,461.36h164.3a6,6,0,0,1-3.21-.9H64a13.39,13.39,0,0,1-13.4-13.39V103.47A22.72,22.72,0,0,1,73.25,80.76H467.93a22.71,22.71,0,0,1,22.66,22.71v80.24a6.37,6.37,0,0,0-11.11,0V156.57H61.7v290.5A2.26,2.26,0,0,0,64,449.3H133.1V300.73l-12.56-30.1a5.57,5.57,0,0,1-.29-3.43l13-54.29a5.57,5.57,0,0,1,5.42-4.29h26a5.64,5.64,0,0,1,5.45,4.29l13,54.29a5.57,5.57,0,0,1-.29,3.43l-12.59,30-.08,148.71h54.94a6.12,6.12,0,0,1,3.21-.9H171V301l12.59-30a6.34,6.34,0,0,0,.33-4L171,212.7a6.48,6.48,0,0,0-6.31-5h-26a6.44,6.44,0,0,0-6.28,5l-13,54.28a6.41,6.41,0,0,0,.33,4l12.49,29.74V448.4H64a1.37,1.37,0,0,1-1.38-1.33V157.47h416v28.3a1.41,1.41,0,0,0,.08.58,6.41,6.41,0,0,0,12.77,0,1.41,1.41,0,0,0,.08-.58v-82.3A23.61,23.61,0,0,0,467.93,79.86Zm11.55,23.61a11.59,11.59,0,0,0-11.55-11.55H73.25A11.59,11.59,0,0,0,61.7,103.47v41.94H479.48Zm-.91,41H62.6v-41A10.67,10.67,0,0,1,73.25,92.82H467.93a10.64,10.64,0,0,1,10.64,10.65ZM159,449.3V299.4a5.86,5.86,0,0,1,.94-3.11l11.77-28,.1-.29-11.51-48.26H143.06l-11.48,48-.07.29,12.31,29.2a5.9,5.9,0,0,1,.43,2.17V449.3ZM132.45,268l11.33-47.29h15.78L170.86,268l-11.77,28a6.64,6.64,0,0,0-1,3.47v149H145.16v-149a6.76,6.76,0,0,0-.51-2.49Z"/><path class="cls-1" d="M467.93,91.92H73.25A11.59,11.59,0,0,0,61.7,103.47v41.94H479.48V103.47A11.59,11.59,0,0,0,467.93,91.92Zm9.74,51.69H63.51V103.47a9.75,9.75,0,0,1,9.74-9.75H467.93a9.75,9.75,0,0,1,9.74,9.75ZM160.28,219.77H143.06l-11.48,48-.07.29,12.31,29.2a5.9,5.9,0,0,1,.43,2.17V449.3H159V299.4a5.86,5.86,0,0,1,.94-3.11l11.77-28,.1-.29Zm-3.1,227.73H146.06V299.4a7.26,7.26,0,0,0-.58-2.85l-12.09-28.66,11.12-46.31h14.33l11.08,46.31-11.59,27.57a7.52,7.52,0,0,0-1.15,3.94ZM467.93,91.92H73.25A11.59,11.59,0,0,0,61.7,103.47v41.94H479.48V103.47A11.59,11.59,0,0,0,467.93,91.92Zm9.74,51.69H63.51V103.47a9.75,9.75,0,0,1,9.74-9.75H467.93a9.75,9.75,0,0,1,9.74,9.75ZM143.06,219.77l-11.48,48-.07.29,12.31,29.2a5.9,5.9,0,0,1,.43,2.17V449.3H159V299.4a5.86,5.86,0,0,1,.94-3.11l11.77-28,.1-.29-11.51-48.26ZM157.18,447.5H146.06V299.4a7.26,7.26,0,0,0-.58-2.85l-12.09-28.66,11.12-46.31h14.33l11.08,46.31-11.59,27.57a7.52,7.52,0,0,0-1.15,3.94ZM467.93,79H73.25a24.52,24.52,0,0,0-24.47,24.51v343.6A15.22,15.22,0,0,0,64,462.26H230.74a7,7,0,0,0,3.5-.9h-6a6,6,0,0,1-3.21-.9H64a13.39,13.39,0,0,1-13.4-13.39V103.47A22.72,22.72,0,0,1,73.25,80.76H467.93a22.71,22.71,0,0,1,22.66,22.71v82.3a5.56,5.56,0,1,1-11.11,0v-29.2H61.7v290.5A2.26,2.26,0,0,0,64,449.3H133.1V300.73l-12.56-30.1a5.57,5.57,0,0,1-.29-3.43l13-54.29a5.57,5.57,0,0,1,5.42-4.29h26a5.64,5.64,0,0,1,5.45,4.29l13,54.29a5.57,5.57,0,0,1-.29,3.43l-12.59,30-.08,148.71h54.94a6.12,6.12,0,0,1,3.21-.9h6a7.09,7.09,0,0,0-3.5-.9h-58.8V301.13l12.52-29.78a7.07,7.07,0,0,0,.36-4.58l-13-54.29a7.32,7.32,0,0,0-7.18-5.67h-26a7.31,7.31,0,0,0-7.15,5.67l-13,54.29a7.07,7.07,0,0,0,.36,4.58l12.41,29.56V447.5H64a.47.47,0,0,1-.47-.43V158.37H477.67v27.4a7.37,7.37,0,0,0,14.73,0v-82.3A24.52,24.52,0,0,0,467.93,79Zm11.55,24.51a11.59,11.59,0,0,0-11.55-11.55H73.25A11.59,11.59,0,0,0,61.7,103.47v41.94H479.48Zm-1.81,40.14H63.51V103.47a9.75,9.75,0,0,1,9.74-9.75H467.93a9.75,9.75,0,0,1,9.74,9.75ZM159,449.3V299.4a5.86,5.86,0,0,1,.94-3.11l11.77-28,.1-.29-11.51-48.26H143.06l-11.48,48-.07.29,12.31,29.2a5.9,5.9,0,0,1,.43,2.17V449.3Zm-.14-227.72,11.08,46.31-11.59,27.57a7.52,7.52,0,0,0-1.15,3.94V447.5H146.06V299.4a7.26,7.26,0,0,0-.58-2.85l-12.09-28.66,11.12-46.31Z"/><path class="cls-1" d="M485,193.13a7.28,7.28,0,0,1-6.47-3.86v257.8a1.36,1.36,0,0,1-1.37,1.33H359.46V413.82a93.83,93.83,0,0,0,42.05-131.89,94.39,94.39,0,0,0-32.81-33.54,12.64,12.64,0,0,0-12.67-.21A12.38,12.38,0,0,0,349.68,259v50.61H290.73V259a12.35,12.35,0,0,0-6.32-10.86,12.64,12.64,0,0,0-12.67.21A93.8,93.8,0,0,0,281,413.82V448.4h-52.7a6.12,6.12,0,0,0-3.21.9H170.13l.08-148.71,12.59-30a5.57,5.57,0,0,0,.29-3.43l-13-54.29a5.64,5.64,0,0,0-5.45-4.29h-26a5.57,5.57,0,0,0-5.42,4.29l-13,54.29a5.57,5.57,0,0,0,.29,3.43l12.56,30.1V449.3H64a2.26,2.26,0,0,1-2.28-2.23V156.57H479.48v27.14a6.37,6.37,0,0,1,11.11,0V103.47a22.71,22.71,0,0,0-22.66-22.71H73.25a22.72,22.72,0,0,0-22.67,22.71v343.6A13.39,13.39,0,0,0,64,460.46H225.07a6,6,0,0,0,3.21.9H477.2a14.3,14.3,0,0,0,14.3-14.29V189.27A7.33,7.33,0,0,1,485,193.13ZM61.7,103.47A11.59,11.59,0,0,1,73.25,91.92H467.93a11.59,11.59,0,0,1,11.55,11.55v41.94H61.7ZM159,299.4V449.3H144.25V299.4a5.9,5.9,0,0,0-.43-2.17L131.51,268l.07-.29,11.48-48h17.22L171.79,268l-.1.29-11.77,28A5.86,5.86,0,0,0,159,299.4ZM346.5,409.56V448.4H326.68v-64a6.48,6.48,0,0,0-13,0v64H293.91V409.56a6.47,6.47,0,0,0-4.05-6,80.82,80.82,0,0,1-12.05-143.7v56.24a6.46,6.46,0,0,0,6.46,6.46h71.87a6.46,6.46,0,0,0,6.49-6.46V259.87a80.84,80.84,0,0,1-12.09,143.7A6.52,6.52,0,0,0,346.5,409.56Z"/><path class="cls-2" d="M344.54,113.39H113.67a6.47,6.47,0,0,0,0,12.94H344.54a6.47,6.47,0,1,0,0-12.94Z"/><path class="cls-2" d="M375.84,111.63a6.47,6.47,0,0,0-6.47,6.47v1.13a6.48,6.48,0,0,0,12.95,0V118.1A6.48,6.48,0,0,0,375.84,111.63Z"/><path class="cls-2" d="M401.68,111.63a6.47,6.47,0,0,0-6.47,6.47v1.13a6.47,6.47,0,1,0,12.94,0V118.1A6.47,6.47,0,0,0,401.68,111.63Z"/><path class="cls-2" d="M427.52,111.63A6.48,6.48,0,0,0,421,118.1v1.13a6.48,6.48,0,0,0,12.95,0V118.1A6.47,6.47,0,0,0,427.52,111.63Z"/><path class="cls-2" d="M387.84,193h-4.49v-4.49a6.47,6.47,0,0,0-12.94,0V193h-4.5a6.48,6.48,0,0,0,0,13h4.5v4.49a6.47,6.47,0,0,0,12.94,0V206h4.49a6.48,6.48,0,1,0,0-13Z"/><path class="cls-2" d="M225.75,247.47h-3.08v-3.08a4.44,4.44,0,0,0-8.88,0v3.08H210.7a4.45,4.45,0,0,0,0,8.89h3.09v3.08a4.44,4.44,0,1,0,8.88,0v-3.08h3.08a4.45,4.45,0,1,0,0-8.89Z"/></svg>
