<svg height="53" width="53" id="Layer_1" data-name="Layer 1" xmlns="http://www.w3.org/2000/svg" viewBox="0 0 539.03 539.03"><defs><style>.cls-1{fill:#898a89;}.cls-2{fill:#7b5edd;}</style></defs><title>Quality Control</title><path class="cls-1" d="M369.64,32.64H169.35A31.42,31.42,0,0,0,138,64V361.2c0,3.89,3.15-.6,7-.6a7.05,7.05,0,0,0,7.05-7.05V64a17.32,17.32,0,0,1,17.3-17.3h26.72l6,30.56a12.77,12.77,0,0,0,12.51,10.3H325.29A12.72,12.72,0,0,0,337.85,77l5.21-30.28h26.58A17.33,17.33,0,0,1,387,64V479a17.33,17.33,0,0,1-17.32,17.31H169.35A17.32,17.32,0,0,1,152.05,479V339.19a7,7,0,0,0-14.09,0V479a31.43,31.43,0,0,0,31.39,31.4H369.64A31.43,31.43,0,0,0,401,479V64A31.43,31.43,0,0,0,369.64,32.64ZM324.15,73.5H215.65l-5.23-26.77H328.77Z"/><path class="cls-1" d="M313.8,60.39a7,7,0,1,1-7-7A7,7,0,0,1,313.8,60.39Z"/><path class="cls-1" d="M230,66.84h46.75a7,7,0,1,0,0-14.09H230a7,7,0,1,0,0,14.09Z"/><path class="cls-2" d="M314.64,183.13a16.5,16.5,0,0,0-15.24-22.82H265.89a16.51,16.51,0,0,0-15.13,9.92L233.32,210.8a7,7,0,0,0,13,5.56c18-40.35,16.61-42,19.62-42H299.4a2.41,2.41,0,0,1,2.18,3.45c-35.1,88.56-34.46,83.6-34.46,89.12a16.51,16.51,0,0,0,16.5,16.49h44.73a2.4,2.4,0,0,1,2.07,3.62L259.83,406.83a2.4,2.4,0,0,1-4.41-1.77c19-81.3,18.55-77.28,18.55-80.87a16.5,16.5,0,0,0-16.5-16.47H210.65a2.4,2.4,0,0,1-2.19-3.41l26.68-62.06a7,7,0,0,0-12.95-5.56c-27.57,65.21-28.05,62.74-28.05,68.63a16.52,16.52,0,0,0,16.51,16.49h46.82a2.39,2.39,0,0,1,2.34,2.95c-18.84,80.89-18.58,77.54-18.58,81.08,0,16.31,22.11,22.79,30.74,8.15l70.59-119.77a16.5,16.5,0,0,0-14.21-24.86H283.62a2.4,2.4,0,0,1-2.21-3.34C282.12,264.3,275.89,279.78,314.64,183.13Z"/></svg>
