<svg height="53" width="53" id="Layer_1" data-name="Layer 1" xmlns="http://www.w3.org/2000/svg" viewBox="0 0 539.03 539.03"><defs><style>.cls-1{fill:#898a89;}.cls-2{fill:#7b5edd;}</style></defs><title>Technical Consulting</title><path class="cls-1" d="M476.37,419.22V476.3a10,10,0,0,1-19.9,0V419.22a30.23,30.23,0,0,0-11.14-23.58c-50.93-41.9-106.14-69.72-116.61-74.84a13.87,13.87,0,0,1-7.66-12.24V228.13a9.83,9.83,0,0,1,4.38-8.19,27.49,27.49,0,0,0,12.34-23V113.52a65.24,65.24,0,0,0-65.14-65.11H260.2a65.24,65.24,0,0,0-65.15,65.11v83.41a27.49,27.49,0,0,0,12.34,23,9.83,9.83,0,0,1,4.38,8.19v80.43a13.87,13.87,0,0,1-7.66,12.24c-10.46,5.12-65.68,32.94-116.61,74.84a30.26,30.26,0,0,0-11.14,23.58V476.3a9.95,9.95,0,0,1-19.89,0V419.22a49.9,49.9,0,0,1,18.36-38.86c48.42-39.83,100.59-67.32,117.31-75.51v-71.7a47.54,47.54,0,0,1-16.82-36.22V113.52a85.1,85.1,0,0,1,85-85H272.5a85.1,85.1,0,0,1,85,85v83.41a47.54,47.54,0,0,1-16.82,36.22v71.7C357.41,313,409.58,340.53,458,380.36A49.93,49.93,0,0,1,476.37,419.22Z"/><polygon class="cls-2" points="255.83 328.18 268.3 343.06 281.14 327.53 283.69 500.81 259.14 518.26 239.19 498.02 255.83 328.18"/></svg>
