<svg height="53" width="53" id="Layer_1" data-name="Layer 1" xmlns="http://www.w3.org/2000/svg" viewBox="0 0 539.03 539.03"><defs><style>.cls-1{fill:#7b5edd;}.cls-2{fill:#898a89;}</style></defs><title>It Relocation</title><path class="cls-1" d="M171.49,217.38,72.22,118.11A8.41,8.41,0,0,0,60.33,130l96.8,96.79,0,11.59a8.41,8.41,0,0,0,8.4,8.43h0a8.41,8.41,0,0,0,8.41-8.4l0-15.08A8.37,8.37,0,0,0,171.49,217.38Z"/><path class="cls-1" d="M247.83,155.93h0L228,156l-96.8-96.8a8.41,8.41,0,0,0-11.89,11.9l99.26,99.26a8.42,8.42,0,0,0,6,2.47h0l23.34,0a8.42,8.42,0,0,0,0-16.83Z"/><path class="cls-2" d="M402.42,83.79a8.41,8.41,0,0,0-11.89,0L318.36,156H306.65a82.75,82.75,0,0,0-58.9,24.39l-7.56,7.56a8.41,8.41,0,0,0,11.89,11.9l7.56-7.56a66,66,0,0,1,47-19.47h.1l15.08,0h0a8.38,8.38,0,0,0,5.94-2.47l74.64-74.63A8.41,8.41,0,0,0,402.42,83.79Z"/><path class="cls-2" d="M486,118.11a8.41,8.41,0,0,0-11.89,0l-99.27,99.27a8.37,8.37,0,0,0-2.46,6l0,23.33a8.41,8.41,0,0,0,8.41,8.4h0a8.41,8.41,0,0,0,8.4-8.42l0-19.85L486,130A8.41,8.41,0,0,0,486,118.11Z"/><path class="cls-1" d="M486,414,389.2,317.2l0-11.6a82.68,82.68,0,0,0-6.36-32A8.41,8.41,0,0,0,367.33,280a66.3,66.3,0,0,1,5.07,25.56l0,15.08a8.37,8.37,0,0,0,2.46,6l99.27,99.27A8.41,8.41,0,0,0,486,414Z"/><path class="cls-1" d="M427.05,472.94l-99.26-99.26a8.42,8.42,0,0,0-6-2.47h0l-23.34,0a8.41,8.41,0,0,0,0,16.82h0l19.84,0,96.8,96.8a8.41,8.41,0,0,0,11.89-11.9Z"/><path class="cls-2" d="M358.64,270.09a23.53,23.53,0,0,0-6.36-4.53,23.69,23.69,0,0,0-10.71-33.08A23.69,23.69,0,0,0,310,200.85a23.72,23.72,0,0,0-38.25-6.78l-33.58,33.58a24,24,0,0,0-43.87-11.17l-23,34.36a83.08,83.08,0,0,0-14.11,46.51l0,19.84L60.33,414a8.41,8.41,0,0,0,11.89,11.9l99.27-99.27a8.37,8.37,0,0,0,2.46-6l0-23.33a66.23,66.23,0,0,1,11.27-37.12l23-34.36a7.21,7.21,0,0,1,12.16,7.76l-9,14.85A10.66,10.66,0,0,0,228,261.52L283.59,206a6.87,6.87,0,0,1,10.27,9.1L261,248a8.41,8.41,0,1,0,11.89,11.89l42.5-42.58a6.87,6.87,0,1,1,9.72,9.72L282.55,269.6a8.41,8.41,0,0,0,11.9,11.89l32.91-32.92a6.88,6.88,0,0,1,9.1.55,6.86,6.86,0,0,1,0,9.72l-32.33,32.33A8.41,8.41,0,1,0,316,303.06l21.62-21.62a6.87,6.87,0,0,1,11.12,5.4,6.8,6.8,0,0,1-2,4.86l-60.06,60.06a66,66,0,0,1-47,19.47h-.09l-15.08,0h0a8.38,8.38,0,0,0-5.94,2.47l-78.14,78.14a8.41,8.41,0,0,0,11.89,11.89L228,388h11.71a82.75,82.75,0,0,0,58.9-24.39l60.06-60.06A23.72,23.72,0,0,0,358.64,270.09Z"/></svg>
