<svg height="53" width="53" id="Layer_1" data-name="Layer 1" xmlns="http://www.w3.org/2000/svg" viewBox="0 0 539.03 539.03"><defs><style>.cls-1{fill:#898a89;}.cls-2{fill:#7b5edd;}</style></defs><title>Development_team</title><path class="cls-1" d="M270.67,162.18c-52.58,0-85.24,26.91-85.24,70.52a9,9,0,0,0,9,9H346.93a9,9,0,0,0,9-9C355.9,189.18,323.24,162.18,270.67,162.18ZM204,223.73c5.92-40.29,51.95-43.61,66.67-43.61s60.74,3.32,66.66,43.61Z"/><path class="cls-1" d="M270.67,68a42.62,42.62,0,1,0,42.61,42.62A42.62,42.62,0,0,0,270.67,68Zm0,67.29a24.68,24.68,0,1,1,24.67-24.67A24.68,24.68,0,0,1,270.67,135.26Z"/><path class="cls-1" d="M118.14,368.54c-52.58,0-85.24,26.91-85.24,70.52a9,9,0,0,0,9,9H194.4a9,9,0,0,0,9-9C203.37,395.54,170.72,368.54,118.14,368.54ZM51.48,430.09c5.92-40.29,51.85-43.61,66.66-43.61s60.74,3.32,66.66,43.61Z"/><path class="cls-1" d="M118.14,274.33A42.62,42.62,0,1,0,160.76,317,42.62,42.62,0,0,0,118.14,274.33Zm0,67.29A24.68,24.68,0,1,1,142.81,317,24.67,24.67,0,0,1,118.14,341.62Z"/><path class="cls-1" d="M423.19,368.54c-52.57,0-85.23,26.91-85.23,70.52a9,9,0,0,0,9,9H499.46a9,9,0,0,0,9-9C508.43,395.54,475.77,368.54,423.19,368.54Zm-66.66,61.55c5.92-40.29,51.86-43.61,66.66-43.61s60.75,3.32,66.67,43.61Z"/><path class="cls-1" d="M423.19,274.33A42.62,42.62,0,1,0,465.81,317,42.62,42.62,0,0,0,423.19,274.33Zm0,67.29A24.68,24.68,0,1,1,447.87,317,24.68,24.68,0,0,1,423.19,341.62Z"/><path class="cls-2" d="M317.05,353l-37.41-37.6V262.49a9,9,0,1,0-17.95,0v52.93l-37.41,37.42a9,9,0,0,0,12.65,12.83l33.74-33.83,33.73,33.83A9,9,0,0,0,317.05,353Z"/></svg>
